<mxfile host="65bd71144e" scale="2" border="30">
    <diagram id="0QhtwqMjpmc_AO-MrRb4" name="第 1 页">
        <mxGraphModel dx="1252" dy="719" grid="1" gridSize="10" guides="1" tooltips="1" connect="1" arrows="1" fold="1" page="1" pageScale="1" pageWidth="1654" pageHeight="2336" background="#FFFFFF" math="0" shadow="0">
            <root>
                <mxCell id="0"/>
                <mxCell id="1" parent="0"/>
                <mxCell id="685" value="&lt;div style=&quot;font-size: 10.5pt&quot;&gt;Task&lt;/div&gt;" style="rounded=0;whiteSpace=wrap;html=1;strokeColor=#FFFFFF;fillColor=#EDF2F4;fontStyle=1;fontFamily=Georgia;" parent="1" vertex="1">
                    <mxGeometry x="330" y="70" width="230" height="60" as="geometry"/>
                </mxCell>
                <mxCell id="686" value="&lt;div style=&quot;font-size: 10.5pt&quot;&gt;Executor&lt;br&gt;&lt;/div&gt;" style="rounded=0;whiteSpace=wrap;html=1;strokeColor=#FFFFFF;fillColor=#EDF2F4;fontStyle=1;fontFamily=Georgia;" parent="1" vertex="1">
                    <mxGeometry x="60" y="70" width="230" height="60" as="geometry"/>
                </mxCell>
                <mxCell id="687" value="&lt;div&gt;&lt;span style=&quot;font-size: 14px&quot;&gt;RDD&lt;/span&gt;&lt;/div&gt;" style="rounded=0;whiteSpace=wrap;html=1;strokeColor=#FFFFFF;fillColor=#EDF2F4;fontStyle=1;fontFamily=Georgia;" parent="1" vertex="1">
                    <mxGeometry x="600" y="70" width="230" height="60" as="geometry"/>
                </mxCell>
                <mxCell id="688" value="&lt;div&gt;&lt;span style=&quot;font-size: 14px&quot;&gt;BlockManager&lt;/span&gt;&lt;br&gt;&lt;/div&gt;" style="rounded=0;whiteSpace=wrap;html=1;strokeColor=#FFFFFF;fillColor=#EDF2F4;fontStyle=1;fontFamily=Georgia;" parent="1" vertex="1">
                    <mxGeometry x="870" y="70" width="230" height="60" as="geometry"/>
                </mxCell>
                <mxCell id="691" value="&lt;div style=&quot;font-size: 10.5pt&quot;&gt;Task&lt;br&gt;&lt;/div&gt;" style="rounded=0;whiteSpace=wrap;html=1;strokeColor=#FFFFFF;fillColor=#EDF2F4;fontStyle=1;fontFamily=Georgia;" parent="1" vertex="1">
                    <mxGeometry x="330" y="500" width="230" height="60" as="geometry"/>
                </mxCell>
                <mxCell id="692" value="&lt;div style=&quot;font-size: 10.5pt&quot;&gt;Executor&lt;br&gt;&lt;/div&gt;" style="rounded=0;whiteSpace=wrap;html=1;strokeColor=#FFFFFF;fillColor=#EDF2F4;fontStyle=1;fontFamily=Georgia;" parent="1" vertex="1">
                    <mxGeometry x="60" y="500" width="230" height="60" as="geometry"/>
                </mxCell>
                <mxCell id="693" value="&lt;div&gt;&lt;span style=&quot;font-size: 14px&quot;&gt;RDD&lt;/span&gt;&lt;br&gt;&lt;/div&gt;" style="rounded=0;whiteSpace=wrap;html=1;strokeColor=#FFFFFF;fillColor=#EDF2F4;fontStyle=1;fontFamily=Georgia;" parent="1" vertex="1">
                    <mxGeometry x="600" y="500" width="230" height="60" as="geometry"/>
                </mxCell>
                <mxCell id="694" value="&lt;div&gt;&lt;span style=&quot;font-size: 14px&quot;&gt;BlockManager&lt;/span&gt;&lt;br&gt;&lt;/div&gt;" style="rounded=0;whiteSpace=wrap;html=1;strokeColor=#FFFFFF;fillColor=#EDF2F4;fontStyle=1;fontFamily=Georgia;" parent="1" vertex="1">
                    <mxGeometry x="870" y="500" width="230" height="60" as="geometry"/>
                </mxCell>
                <mxCell id="697" style="edgeStyle=orthogonalEdgeStyle;rounded=0;orthogonalLoop=1;jettySize=auto;html=1;fontSize=12;endArrow=none;endFill=0;endSize=4;dashed=1;strokeColor=#A7BFC9;exitX=0.5;exitY=1;exitDx=0;exitDy=0;entryX=0.5;entryY=0;entryDx=0;entryDy=0;" parent="1" source="686" target="692" edge="1">
                    <mxGeometry relative="1" as="geometry">
                        <mxPoint x="158.5" y="130" as="sourcePoint"/>
                        <mxPoint x="175" y="590" as="targetPoint"/>
                    </mxGeometry>
                </mxCell>
                <mxCell id="698" style="edgeStyle=orthogonalEdgeStyle;rounded=0;orthogonalLoop=1;jettySize=auto;html=1;fontSize=12;endArrow=none;endFill=0;endSize=4;dashed=1;strokeColor=#A7BFC9;exitX=0.5;exitY=1;exitDx=0;exitDy=0;entryX=0.5;entryY=0;entryDx=0;entryDy=0;" parent="1" source="685" target="691" edge="1">
                    <mxGeometry relative="1" as="geometry">
                        <mxPoint x="290" y="150" as="sourcePoint"/>
                        <mxPoint x="290" y="610" as="targetPoint"/>
                    </mxGeometry>
                </mxCell>
                <mxCell id="699" style="edgeStyle=orthogonalEdgeStyle;rounded=0;orthogonalLoop=1;jettySize=auto;html=1;fontSize=12;endArrow=none;endFill=0;endSize=4;dashed=1;strokeColor=#A7BFC9;exitX=0.5;exitY=1;exitDx=0;exitDy=0;entryX=0.5;entryY=0;entryDx=0;entryDy=0;" parent="1" source="687" target="693" edge="1">
                    <mxGeometry relative="1" as="geometry">
                        <mxPoint x="600" y="150" as="sourcePoint"/>
                        <mxPoint x="600" y="610" as="targetPoint"/>
                    </mxGeometry>
                </mxCell>
                <mxCell id="700" style="edgeStyle=orthogonalEdgeStyle;rounded=0;orthogonalLoop=1;jettySize=auto;html=1;fontSize=12;endArrow=none;endFill=0;endSize=4;dashed=1;strokeColor=#A7BFC9;exitX=0.5;exitY=1;exitDx=0;exitDy=0;entryX=0.5;entryY=0;entryDx=0;entryDy=0;" parent="1" source="688" target="694" edge="1">
                    <mxGeometry relative="1" as="geometry">
                        <mxPoint x="890" y="150" as="sourcePoint"/>
                        <mxPoint x="890" y="610" as="targetPoint"/>
                    </mxGeometry>
                </mxCell>
                <mxCell id="704" style="edgeStyle=orthogonalEdgeStyle;rounded=0;orthogonalLoop=1;jettySize=auto;html=1;fontColor=#345253;endArrow=block;endFill=1;dashed=1;" parent="1" source="703" edge="1">
                    <mxGeometry relative="1" as="geometry">
                        <mxPoint x="445" y="190" as="targetPoint"/>
                    </mxGeometry>
                </mxCell>
                <mxCell id="703" value="&lt;font color=&quot;#ffffff&quot; style=&quot;font-size: 12px&quot;&gt;1&lt;/font&gt;" style="ellipse;whiteSpace=wrap;html=1;aspect=fixed;strokeColor=none;fillColor=#345253;fontSize=12;" parent="1" vertex="1">
                    <mxGeometry x="165" y="180" width="20" height="20" as="geometry"/>
                </mxCell>
                <mxCell id="705" value="Task.runTask" style="text;html=1;strokeColor=none;fillColor=none;align=center;verticalAlign=middle;whiteSpace=wrap;rounded=0;fontSize=12;" parent="1" vertex="1">
                    <mxGeometry x="185" y="170" width="255" height="20" as="geometry"/>
                </mxCell>
                <mxCell id="707" style="edgeStyle=orthogonalEdgeStyle;rounded=0;orthogonalLoop=1;jettySize=auto;html=1;dashed=1;fontColor=#345253;endArrow=block;endFill=1;strokeColor=#000000;" parent="1" source="706" edge="1">
                    <mxGeometry relative="1" as="geometry">
                        <mxPoint x="715" y="240" as="targetPoint"/>
                    </mxGeometry>
                </mxCell>
                <mxCell id="706" value="&lt;font color=&quot;#ffffff&quot; style=&quot;font-size: 12px&quot;&gt;2&lt;/font&gt;" style="ellipse;whiteSpace=wrap;html=1;aspect=fixed;strokeColor=none;fillColor=#345253;fontSize=12;" parent="1" vertex="1">
                    <mxGeometry x="435" y="230" width="20" height="20" as="geometry"/>
                </mxCell>
                <mxCell id="708" value="RDD.iterator" style="text;html=1;strokeColor=none;fillColor=none;align=center;verticalAlign=middle;whiteSpace=wrap;rounded=0;fontSize=12;" parent="1" vertex="1">
                    <mxGeometry x="455" y="220" width="255" height="20" as="geometry"/>
                </mxCell>
                <mxCell id="710" style="edgeStyle=orthogonalEdgeStyle;rounded=0;orthogonalLoop=1;jettySize=auto;html=1;dashed=1;fontColor=#345253;endArrow=block;endFill=1;strokeColor=#000000;" parent="1" source="709" edge="1">
                    <mxGeometry relative="1" as="geometry">
                        <mxPoint x="985" y="290" as="targetPoint"/>
                    </mxGeometry>
                </mxCell>
                <mxCell id="709" value="&lt;font color=&quot;#ffffff&quot; style=&quot;font-size: 12px&quot;&gt;3&lt;/font&gt;" style="ellipse;whiteSpace=wrap;html=1;aspect=fixed;strokeColor=none;fillColor=#345253;fontSize=12;" parent="1" vertex="1">
                    <mxGeometry x="705" y="280" width="20" height="20" as="geometry"/>
                </mxCell>
                <mxCell id="711" value="BlockManager.getOrElseUpdate" style="text;html=1;strokeColor=none;fillColor=none;align=center;verticalAlign=middle;whiteSpace=wrap;rounded=0;fontSize=12;" parent="1" vertex="1">
                    <mxGeometry x="725" y="270" width="255" height="20" as="geometry"/>
                </mxCell>
                <mxCell id="713" style="edgeStyle=orthogonalEdgeStyle;rounded=0;orthogonalLoop=1;jettySize=auto;html=1;dashed=1;fontColor=#345253;endArrow=block;endFill=1;strokeColor=#000000;" parent="1" source="712" edge="1">
                    <mxGeometry relative="1" as="geometry">
                        <mxPoint x="715" y="340" as="targetPoint"/>
                    </mxGeometry>
                </mxCell>
                <mxCell id="712" value="&lt;font color=&quot;#ffffff&quot; style=&quot;font-size: 12px&quot;&gt;4&lt;/font&gt;" style="ellipse;whiteSpace=wrap;html=1;aspect=fixed;strokeColor=none;fillColor=#345253;fontSize=12;" parent="1" vertex="1">
                    <mxGeometry x="975" y="330" width="20" height="20" as="geometry"/>
                </mxCell>
                <mxCell id="714" value="return BlockResult" style="text;html=1;strokeColor=none;fillColor=none;align=center;verticalAlign=middle;whiteSpace=wrap;rounded=0;fontSize=12;" parent="1" vertex="1">
                    <mxGeometry x="725" y="320" width="255" height="20" as="geometry"/>
                </mxCell>
                <mxCell id="738" style="edgeStyle=none;html=1;exitX=0;exitY=0.5;exitDx=0;exitDy=0;endArrow=block;endFill=1;dashed=1;" parent="1" source="737" edge="1">
                    <mxGeometry relative="1" as="geometry">
                        <mxPoint x="445" y="389.8571428571429" as="targetPoint"/>
                    </mxGeometry>
                </mxCell>
                <mxCell id="737" value="&lt;font color=&quot;#ffffff&quot; style=&quot;font-size: 12px&quot;&gt;5&lt;/font&gt;" style="ellipse;whiteSpace=wrap;html=1;aspect=fixed;strokeColor=none;fillColor=#345253;fontSize=12;" parent="1" vertex="1">
                    <mxGeometry x="705" y="380" width="20" height="20" as="geometry"/>
                </mxCell>
                <mxCell id="739" value="return Iterator[T]" style="text;html=1;strokeColor=none;fillColor=none;align=center;verticalAlign=middle;whiteSpace=wrap;rounded=0;fontSize=12;" parent="1" vertex="1">
                    <mxGeometry x="455" y="370" width="255" height="20" as="geometry"/>
                </mxCell>
                <mxCell id="741" style="edgeStyle=none;html=1;exitX=0;exitY=0.5;exitDx=0;exitDy=0;dashed=1;endArrow=block;endFill=1;" parent="1" source="740" edge="1">
                    <mxGeometry relative="1" as="geometry">
                        <mxPoint x="175" y="440.1428571428571" as="targetPoint"/>
                    </mxGeometry>
                </mxCell>
                <mxCell id="740" value="&lt;font color=&quot;#ffffff&quot; style=&quot;font-size: 12px&quot;&gt;6&lt;/font&gt;" style="ellipse;whiteSpace=wrap;html=1;aspect=fixed;strokeColor=none;fillColor=#345253;fontSize=12;" parent="1" vertex="1">
                    <mxGeometry x="435" y="430" width="20" height="20" as="geometry"/>
                </mxCell>
                <mxCell id="742" value="return T" style="text;html=1;strokeColor=none;fillColor=none;align=center;verticalAlign=middle;whiteSpace=wrap;rounded=0;fontSize=12;" parent="1" vertex="1">
                    <mxGeometry x="185" y="420" width="255" height="20" as="geometry"/>
                </mxCell>
            </root>
        </mxGraphModel>
    </diagram>
</mxfile>